# xmcd
#
# Track frame offsets:
#	150
#	15319
#	29542
#	44966
#	58369
#	75069
#	105878
#	120716
#	138194
#	151287
#	164023
#	177295
#	191605
#	210153
#	224334
#	233810
#
# Disc length: 3408 seconds
#
# Revision: 0
# Processed by: cddbd v1.5.2PL0 Copyright (c) Steve Scherf et al.
# Submitted via: EasyCDDAExtractor 2010.6.0.0
#
DISCID=d10d4e10
DTITLE=Various Artist - Wien - Traumstadt der Melodien
DYEAR=2013
DGENRE=Wienerlieder
TTITLE0=Hermann Prey - Im Prater blüh'n wieder die Bäume
TTITLE1=Frank Pourcel et son Grand Orchestre - Wiener Praterleben
TTITLE2=Hans Moser - Ich trag im Herzen drin
TTITLE3=Die original Hoch- und Deutschmesiter - Prater Schrammeln
TTITLE4=Rupert Glawitsch - Im Prater, da hab' ich ein Mädel geseh'n
TTITLE5=Ingeborg Hallstein - Frühlingsstimmen-Walzer
TTITLE6=Grosses Wiener Rundfunkorchester - Gruß aus Wien
TTITLE7=Peter Minich - Schön ist die Aussicht heute
TTITLE8=Anton Karas - Harry Lime Thema
TTITLE9=Hermann Leopoldi - Schön ist so ein Ringelspiel
TTITLE10=Maria Andergast, Hans Lang - Harmonika-Hansl
TTITLE11=Horst Winter - Kleine Melodie aus Wien
TTITLE12=Wiener Philharmoniker - Im Krapfenwaldl
TTITLE13=Hans Moser - A bisserl Grinzing, a bisserl Sievering
TTITLE14=Wiener Philharmoniker - Auf der Jagd
TTITLE15=Rudolf Schock - Grüß mir mein Wien aus Gräfin Mariza
EXTD=
EXTT0=
EXTT1=
EXTT2=
EXTT3=
EXTT4=
EXTT5=
EXTT6=
EXTT7=
EXTT8=
EXTT9=
EXTT10=
EXTT11=
EXTT12=
EXTT13=
EXTT14=
EXTT15=
PLAYORDER=
